<svg width="375" height="812" viewBox="0 0 375 812" fill="none" xmlns="http://www.w3.org/2000/svg">
  <!-- iPhone Frame -->
  <rect width="375" height="812" rx="40" fill="#F6F8FA"/>
  
  <!-- Status Bar -->
  <rect x="0" y="0" width="375" height="44" fill="#FFFFFF"/>
  <text x="24" y="30" font-family="SF Pro Display" font-size="17" font-weight="600" fill="#000">9:41</text>
  <text x="335" y="30" font-family="SF Pro Display" font-size="17" fill="#000">100%</text>
  
  <!-- Navigation Bar -->
  <rect x="0" y="44" width="375" height="70" fill="#2C3E50"/>
  <text x="24" y="90" font-family="SF Pro Display" font-size="28" font-weight="700" fill="#FFFFFF">SewSmart Dashboard</text>
  <circle cx="335" cy="79" r="18" fill="#3498DB"/>
  <text x="329" y="84" font-family="SF Pro Display" font-size="16" fill="#FFFFFF">+</text>
  
  <!-- Quick Stats Row -->
  <rect x="0" y="114" width="375" height="80" fill="#34495E"/>
  
  <!-- Stat Cards -->
  <rect x="24" y="130" width="75" height="48" rx="8" fill="#3498DB"/>
  <text x="36" y="146" font-family="SF Pro Text" font-size="20" font-weight="700" fill="#FFFFFF">12</text>
  <text x="28" y="160" font-family="SF Pro Text" font-size="10" fill="#FFFFFF">ACTIVE</text>
  <text x="28" y="170" font-family="SF Pro Text" font-size="10" fill="#FFFFFF">PROJECTS</text>
  
  <rect x="109" y="130" width="75" height="48" rx="8" fill="#E74C3C"/>
  <text x="121" y="146" font-family="SF Pro Text" font-size="20" font-weight="700" fill="#FFFFFF">3</text>
  <text x="117" y="160" font-family="SF Pro Text" font-size="10" fill="#FFFFFF">OVERDUE</text>
  <text x="120" y="170" font-family="SF Pro Text" font-size="10" fill="#FFFFFF">ITEMS</text>
  
  <rect x="194" y="130" width="75" height="48" rx="8" fill="#27AE60"/>
  <text x="206" y="146" font-family="SF Pro Text" font-size="20" font-weight="700" fill="#FFFFFF">85%</text>
  <text x="200" y="160" font-family="SF Pro Text" font-size="10" fill="#FFFFFF">OVERALL</text>
  <text x="198" y="170" font-family="SF Pro Text" font-size="10" fill="#FFFFFF">PROGRESS</text>
  
  <rect x="279" y="130" width="75" height="48" rx="8" fill="#F39C12"/>
  <text x="291" y="146" font-family="SF Pro Text" font-size="20" font-weight="700" fill="#FFFFFF">24</text>
  <text x="287" y="160" font-family="SF Pro Text" font-size="10" fill="#FFFFFF">FABRIC</text>
  <text x="289" y="170" font-family="SF Pro Text" font-size="10" fill="#FFFFFF">YARDS</text>
  
  <!-- Section Header -->
  <text x="24" y="224" font-family="SF Pro Display" font-size="18" font-weight="600" fill="#2C3E50">Recent Projects</text>
  <text x="335" y="224" font-family="SF Pro Text" font-size="14" fill="#3498DB">View All</text>
  
  <!-- Professional Project Cards -->
  <!-- Card 1 -->
  <rect x="24" y="240" width="327" height="90" rx="12" fill="#FFFFFF" stroke="#E1E8ED" stroke-width="1"/>
  <rect x="36" y="252" width="4" height="66" rx="2" fill="#3498DB"/>
  <text x="52" y="268" font-family="SF Pro Display" font-size="16" font-weight="600" fill="#2C3E50">Summer Dress Collection</text>
  <rect x="280" y="250" width="60" height="20" rx="10" fill="#E8F4FD"/>
  <text x="295" y="262" font-family="SF Pro Text" font-size="11" font-weight="500" fill="#3498DB">ACTIVE</text>
  
  <text x="52" y="284" font-family="SF Pro Text" font-size="13" fill="#6C757D">Due: March 25, 2024</text>
  
  <!-- Mini progress chart -->
  <rect x="52" y="295" width="150" height="4" rx="2" fill="#F8F9FA"/>
  <rect x="52" y="295" width="90" height="4" rx="2" fill="#3498DB"/>
  
  <text x="52" y="312" font-family="SF Pro Text" font-size="11" fill="#6C757D">Progress: 60% • 4 tasks remaining</text>
  <text x="280" y="312" font-family="SF Pro Text" font-size="11" fill="#6C757D">High Priority</text>
  
  <!-- Card 2 -->
  <rect x="24" y="346" width="327" height="90" rx="12" fill="#FFFFFF" stroke="#E1E8ED" stroke-width="1"/>
  <rect x="36" y="358" width="4" height="66" rx="2" fill="#F39C12"/>
  <text x="52" y="374" font-family="SF Pro Display" font-size="16" font-weight="600" fill="#2C3E50">Baby Blanket Series</text>
  <rect x="280" y="356" width="60" height="20" rx="10" fill="#FEF7E6"/>
  <text x="290" y="368" font-family="SF Pro Text" font-size="11" font-weight="500" fill="#F39C12">PLANNING</text>
  
  <text x="52" y="390" font-family="SF Pro Text" font-size="13" fill="#6C757D">Due: April 15, 2024</text>
  
  <!-- Mini progress chart -->
  <rect x="52" y="401" width="150" height="4" rx="2" fill="#F8F9FA"/>
  <rect x="52" y="401" width="15" height="4" rx="2" fill="#F39C12"/>
  
  <text x="52" y="418" font-family="SF Pro Text" font-size="11" fill="#6C757D">Progress: 10% • Research phase</text>
  <text x="280" y="418" font-family="SF Pro Text" font-size="11" fill="#6C757D">Medium Priority</text>
  
  <!-- Card 3 -->
  <rect x="24" y="452" width="327" height="90" rx="12" fill="#FFFFFF" stroke="#E1E8ED" stroke-width="1"/>
  <rect x="36" y="464" width="4" height="66" rx="2" fill="#27AE60"/>
  <text x="52" y="480" font-family="SF Pro Display" font-size="16" font-weight="600" fill="#2C3E50">Winter Coat Project</text>
  <rect x="280" y="462" width="60" height="20" rx="10" fill="#E8F5E8"/>
  <text x="288" y="474" font-family="SF Pro Text" font-size="11" font-weight="500" fill="#27AE60">COMPLETED</text>
  
  <text x="52" y="496" font-family="SF Pro Text" font-size="13" fill="#6C757D">Completed: February 28, 2024</text>
  
  <!-- Complete progress chart -->
  <rect x="52" y="507" width="150" height="4" rx="2" fill="#F8F9FA"/>
  <rect x="52" y="507" width="150" height="4" rx="2" fill="#27AE60"/>
  
  <text x="52" y="524" font-family="SF Pro Text" font-size="11" fill="#6C757D">100% Complete • 2 weeks early</text>
  <text x="280" y="524" font-family="SF Pro Text" font-size="11" fill="#27AE60">Excellent</text>
  
  <!-- Analytics Section -->
  <text x="24" y="570" font-family="SF Pro Display" font-size="18" font-weight="600" fill="#2C3E50">This Week</text>
  
  <!-- Mini chart representation -->
  <rect x="24" y="580" width="327" height="60" rx="12" fill="#FFFFFF" stroke="#E1E8ED" stroke-width="1"/>
  <text x="36" y="600" font-family="SF Pro Text" font-size="13" fill="#6C757D">Productivity Trend</text>
  
  <!-- Simple bar chart -->
  <rect x="36" y="610" width="8" height="15" rx="2" fill="#3498DB"/>
  <rect x="50" y="605" width="8" height="20" rx="2" fill="#3498DB"/>
  <rect x="64" y="608" width="8" height="17" rx="2" fill="#3498DB"/>
  <rect x="78" y="603" width="8" height="22" rx="2" fill="#3498DB"/>
  <rect x="92" y="606" width="8" height="19" rx="2" fill="#E74C3C"/>
  <rect x="106" y="610" width="8" height="15" rx="2" fill="#E74C3C"/>
  <rect x="120" y="604" width="8" height="21" rx="2" fill="#27AE60"/>
  
  <text x="250" y="605" font-family="SF Pro Text" font-size="12" fill="#27AE60">↗ 15% improvement</text>
  <text x="250" y="620" font-family="SF Pro Text" font-size="11" fill="#6C757D">vs last week</text>
  
  <!-- Bottom Tab Bar -->
  <rect x="0" y="728" width="375" height="84" fill="#2C3E50"/>
  
  <!-- Tab Items -->
  <g>
    <!-- Dashboard Tab (Active) -->
    <rect x="30" y="748" width="75" height="44" fill="#3498DB" rx="8"/>
    <text x="57" y="764" font-family="SF Pro Text" font-size="12" fill="#FFFFFF">📊</text>
    <text x="45" y="778" font-family="SF Pro Text" font-size="11" font-weight="500" fill="#FFFFFF">Dashboard</text>
  </g>
  
  <g>
    <!-- Projects Tab -->
    <text x="127" y="764" font-family="SF Pro Text" font-size="12" fill="#BDC3C7">📁</text>
    <text x="115" y="778" font-family="SF Pro Text" font-size="11" fill="#BDC3C7">Projects</text>
  </g>
  
  <g>
    <!-- Analytics Tab -->
    <text x="187" y="764" font-family="SF Pro Text" font-size="12" fill="#BDC3C7">📈</text>
    <text x="175" y="778" font-family="SF Pro Text" font-size="11" fill="#BDC3C7">Analytics</text>
  </g>
  
  <g>
    <!-- Resources Tab -->
    <text x="250" y="764" font-family="SF Pro Text" font-size="12" fill="#BDC3C7">🧵</text>
    <text x="238" y="778" font-family="SF Pro Text" font-size="11" fill="#BDC3C7">Resources</text>
  </g>
  
  <g>
    <!-- Settings Tab -->
    <text x="315" y="764" font-family="SF Pro Text" font-size="12" fill="#BDC3C7">⚙️</text>
    <text x="307" y="778" font-family="SF Pro Text" font-size="11" fill="#BDC3C7">Settings</text>
  </g>
  
  <!-- Title -->
  <text x="375" y="30" text-anchor="end" font-family="SF Pro Display" font-size="16" font-weight="600" fill="#2C3E50">Option 3: Professional Dashboard</text>
</svg>